<svg width="25" height="25" viewBox="0 0 25 25" fill="none" xmlns="http://www.w3.org/2000/svg">
<path d="M12.5 24.4922C10.8672 24.4922 9.32812 24.1797 7.88281 23.5547C6.44531 22.9297 5.17578 22.0664 4.07422 20.9648C2.97266 19.8633 2.10938 18.5938 1.48438 17.1562C0.859375 15.7109 0.546875 14.1719 0.546875 12.5391C0.546875 10.9062 0.859375 9.37109 1.48438 7.93359C2.10938 6.48828 2.96875 5.21484 4.0625 4.11328C5.16406 3.01172 6.43359 2.14844 7.87109 1.52344C9.31641 0.898438 10.8555 0.585938 12.4883 0.585938C14.1211 0.585938 15.6602 0.898438 17.1055 1.52344C18.5508 2.14844 19.8242 3.01172 20.9258 4.11328C22.0273 5.21484 22.8906 6.48828 23.5156 7.93359C24.1406 9.37109 24.4531 10.9062 24.4531 12.5391C24.4531 14.1719 24.1406 15.7109 23.5156 17.1562C22.8906 18.5938 22.0273 19.8633 20.9258 20.9648C19.8242 22.0664 18.5508 22.9297 17.1055 23.5547C15.668 24.1797 14.1328 24.4922 12.5 24.4922ZM12.5 22.5C13.8828 22.5 15.1758 22.2422 16.3789 21.7266C17.5898 21.2109 18.6484 20.5 19.5547 19.5938C20.4688 18.6797 21.1797 17.6211 21.6875 16.418C22.2031 15.2148 22.4609 13.9219 22.4609 12.5391C22.4609 11.1562 22.2031 9.86328 21.6875 8.66016C21.1719 7.45703 20.457 6.39844 19.543 5.48438C18.6289 4.57031 17.5703 3.85938 16.3672 3.35156C15.1641 2.83594 13.8711 2.57812 12.4883 2.57812C11.1055 2.57812 9.8125 2.83594 8.60938 3.35156C7.40625 3.85938 6.35156 4.57031 5.44531 5.48438C4.53906 6.39844 3.82812 7.45703 3.3125 8.66016C2.80469 9.86328 2.55078 11.1562 2.55078 12.5391C2.55078 13.9219 2.80469 15.2148 3.3125 16.418C3.82812 17.6211 4.53906 18.6797 5.44531 19.5938C6.35938 20.5 7.41797 21.2109 8.62109 21.7266C9.82422 22.2422 11.1172 22.5 12.5 22.5ZM7.13281 18.4805C6.89844 18.4805 6.72266 18.4141 6.60547 18.2812C6.49609 18.1406 6.44141 17.9609 6.44141 17.7422C6.44141 17.4219 6.5625 17.0078 6.80469 16.5C7.05469 15.9844 7.42578 15.4727 7.91797 14.9648C8.41797 14.4492 9.04688 14.0156 9.80469 13.6641C10.5625 13.3125 11.457 13.1367 12.4883 13.1367C13.5195 13.1367 14.4141 13.3125 15.1719 13.6641C15.9297 14.0156 16.5547 14.4492 17.0469 14.9648C17.5469 15.4727 17.918 15.9844 18.1602 16.5C18.4102 17.0078 18.5352 17.4219 18.5352 17.7422C18.5352 17.9609 18.4766 18.1406 18.3594 18.2812C18.25 18.4141 18.0781 18.4805 17.8438 18.4805H7.13281ZM12.4883 12.1758C11.9336 12.1758 11.4258 12.0312 10.9648 11.7422C10.5117 11.4531 10.1484 11.0625 9.875 10.5703C9.60938 10.0781 9.47656 9.51953 9.47656 8.89453C9.47656 8.30859 9.60938 7.77344 9.875 7.28906C10.1484 6.79688 10.5117 6.40625 10.9648 6.11719C11.4258 5.82031 11.9336 5.67188 12.4883 5.67188C13.043 5.67188 13.5469 5.82031 14 6.11719C14.4609 6.40625 14.8242 6.79688 15.0898 7.28906C15.3633 7.77344 15.5 8.30859 15.5 8.89453C15.5 9.51953 15.3633 10.082 15.0898 10.582C14.8242 11.0742 14.4609 11.4648 14 11.7539C13.5469 12.043 13.043 12.1836 12.4883 12.1758Z" fill="#767676"/>
</svg>
